<svg width="14" height="15" viewBox="0 0 14 15" fill="none" xmlns="http://www.w3.org/2000/svg">
<g id="edit_square">
<mask id="mask0_29_358" style="mask-type:alpha" maskUnits="userSpaceOnUse" x="0" y="0" width="14" height="15">
<rect id="Bounding box" y="0.5" width="14" height="14" fill="#D9D9D9"/>
</mask>
<g mask="url(#mask0_29_358)">
<path id="edit_square_2" d="M3.32955 12.1084C3.06697 12.1084 2.84502 12.0177 2.6637 11.8364C2.48238 11.6551 2.39172 11.4331 2.39172 11.1706V3.82957C2.39172 3.56299 2.48165 3.33761 2.66152 3.15343C2.84138 2.96925 3.06405 2.88203 3.32955 2.89175H8.21832L7.46 3.65007H3.32955C3.28467 3.65007 3.24353 3.66876 3.20613 3.70616C3.16874 3.74356 3.15004 3.7847 3.15004 3.82957V11.1706C3.15004 11.2154 3.16874 11.2566 3.20613 11.294C3.24353 11.3314 3.28467 11.3501 3.32955 11.3501H10.6705C10.7154 11.3501 10.7566 11.3314 10.794 11.294C10.8313 11.2566 10.85 11.2154 10.85 11.1706V7.01767L11.6084 6.25936V11.1706C11.6084 11.4331 11.5177 11.6551 11.3364 11.8364C11.1551 12.0177 10.9331 12.1084 10.6705 12.1084H3.32955ZM5.89172 8.60839V6.85392L10.9869 1.75874C11.0677 1.67797 11.1526 1.62169 11.2416 1.58991C11.3305 1.55813 11.4238 1.54224 11.5214 1.54224C11.6203 1.54224 11.7154 1.55813 11.8068 1.58991C11.8981 1.62169 11.982 1.67504 12.0585 1.74996L12.7189 2.39592C12.8034 2.47668 12.8635 2.56525 12.899 2.66162C12.9345 2.75799 12.9523 2.85563 12.9523 2.95454C12.9523 3.0537 12.9353 3.14971 12.9015 3.24258C12.8676 3.33544 12.8105 3.4219 12.7302 3.50197L7.61814 8.60839H5.89172ZM6.65004 7.85007H7.30405L10.9252 4.22889L10.6055 3.8946L10.26 3.56368L6.65004 7.17363V7.85007Z" fill="#1C1B1F"/>
</g>
</g>
</svg>
