<svg width="23" height="23" viewBox="0 0 23 23" fill="none" xmlns="http://www.w3.org/2000/svg">
<path d="M3.45001 5.03125C3.45001 4.45938 3.67719 3.91093 4.08156 3.50655C4.48594 3.10218 5.03439 2.875 5.60626 2.875H18.5438C19.1156 2.875 19.6641 3.10218 20.0685 3.50655C20.4728 3.91093 20.7 4.45938 20.7 5.03125V5.60769C20.0447 5.22876 19.3008 5.0299 18.5438 5.03125H5.60626C4.82139 5.03125 4.08395 5.24113 3.45001 5.60769V5.03125ZM5.60626 7.1875C5.03439 7.1875 4.48594 7.41468 4.08156 7.81905C3.67719 8.22343 3.45001 8.77188 3.45001 9.34375V9.92019C4.10536 9.54126 4.84926 9.3424 5.60626 9.34375H18.5438C19.3286 9.34375 20.0661 9.55363 20.7 9.92019V9.34375C20.7 8.77188 20.4728 8.22343 20.0685 7.81905C19.6641 7.41468 19.1156 7.1875 18.5438 7.1875H5.60626ZM12.075 14.375C12.7137 14.3751 13.3343 14.1625 13.8387 13.7707C14.3432 13.379 14.7028 12.8304 14.8609 12.2116C14.9586 11.8263 15.272 11.5 15.6688 11.5H18.5438C19.1156 11.5 19.6641 11.7272 20.0685 12.1316C20.4728 12.5359 20.7 13.0844 20.7 13.6562V17.9688C20.7 18.5406 20.4728 19.0891 20.0685 19.4935C19.6641 19.8978 19.1156 20.125 18.5438 20.125H5.60626C5.03439 20.125 4.48594 19.8978 4.08156 19.4935C3.67719 19.0891 3.45001 18.5406 3.45001 17.9688V13.6562C3.45001 13.0844 3.67719 12.5359 4.08156 12.1316C4.48594 11.7272 5.03439 11.5 5.60626 11.5H8.48126C8.87801 11.5 9.19139 11.8263 9.28914 12.2116C9.44722 12.8304 9.80686 13.379 10.3113 13.7707C10.8158 14.1625 11.4363 14.3751 12.075 14.375Z" fill="#43578A"/>
</svg>
